<?xml version="1.0" encoding="utf-8"?>
<!-- Generator: Adobe Illustrator 15.0.2, SVG Export Plug-In . SVG Version: 6.00 Build 0)  -->
<!DOCTYPE svg PUBLIC "-//W3C//DTD SVG 1.1//EN" "http://www.w3.org/Graphics/SVG/1.1/DTD/svg11.dtd">
<svg version="1.1" id="Layer_1" xmlns="http://www.w3.org/2000/svg" xmlns:xlink="http://www.w3.org/1999/xlink" x="0px" y="0px"
	 width="512px" height="338.838px" viewBox="0.328 0 512 338.838" enable-background="new 0.328 0 512 338.838"
	 xml:space="preserve">
<g>
	<path d="M321.769,73.552c-7.308,0-14.464,2.978-19.611,8.115c-5.192,5.143-8.106,12.289-8.106,19.603
		c0,7.317,2.914,14.464,8.106,19.606c5.147,5.144,12.293,8.11,19.611,8.11c7.245,0,14.405-2.972,19.603-8.11
		c5.143-5.182,8.115-12.289,8.115-19.606c0-7.313-2.982-14.46-8.115-19.603C336.184,76.529,329.024,73.552,321.769,73.552z"/>
	<path d="M378.864,117.249c-7.299,0-14.455,2.973-19.607,8.11c-5.138,5.183-8.11,12.289-8.11,19.607
		c0,7.313,2.982,14.459,8.11,19.607c5.192,5.143,12.299,8.11,19.607,8.11c7.312,0,14.464-2.973,19.611-8.11
		c5.144-5.144,8.105-12.294,8.105-19.607c0-7.318-2.972-14.41-8.105-19.607C393.327,120.217,386.171,117.249,378.864,117.249z"/>
	<path d="M188.019,108.016h-16.596v-16.61c0-6.964-5.64-12.599-12.599-12.599c-6.969,0-12.6,5.635-12.6,12.599v16.61H129.63
		c-6.969,0-12.599,5.635-12.599,12.599c0,6.959,5.63,12.599,12.599,12.599h16.595v16.591c0,6.959,5.631,12.599,12.6,12.599
		c6.959,0,12.599-5.64,12.599-12.599v-16.591h16.596c6.959,0,12.599-5.64,12.599-12.599
		C200.617,113.651,194.978,108.016,188.019,108.016z"/>
	<path d="M456.086,79.339c4.853-15.66,2.947-32.044-5.65-47.024C440.332,14.71,421.774,1.152,406.295,0.083
		C405.479,0.029,404.632,0,403.756,0c-14.051,0-33.412,8.618-44.382,14.149c-34.633-5.749-70.102-8.657-105.531-8.657
		c-49.544,0-85.84,5.665-100.86,8.495C141.27,8.11,120.225-0.891,106.381,0.094C90.908,1.161,72.344,14.71,62.24,32.324
		c-8.598,14.986-10.503,31.369-5.649,47.024C43.879,109.315,0.328,216.968,0.328,284.746c0,15.016,5.448,28.762,15.335,38.718
		c9.857,9.911,23.406,15.374,38.141,15.374c22.053,0,44.48-11.969,63.138-33.707c14.966-17.422,40.642-49.889,53.703-66.523
		c17.357,3.893,49.903,9.734,89.138,9.734c29.021,0,56.661-3.198,82.395-9.518c13.116,16.693,38.634,48.969,53.536,66.307
		c18.662,21.738,41.074,33.707,63.128,33.707c30.503,0,53.486-23.254,53.486-54.082C512.348,216.968,468.798,109.315,456.086,79.339
		z M458.857,298.521c-9.966,0-21.827-7.166-32.556-19.651c-19.622-22.846-60.16-74.855-60.578-75.377
		c-3.888-4.976-9.794-7.767-15.901-7.767c-1.909,0-3.834,0.271-5.724,0.827c-25.72,7.623-54.072,11.472-84.31,11.472
		c-51.513,0-90.851-11.368-91.229-11.472c-7.934-2.343-16.526,0.403-21.625,6.939c-0.408,0.526-40.951,52.531-60.583,75.377
		c-10.724,12.495-22.58,19.651-32.556,19.651c-3.986,0-7.284-1.196-9.553-3.479c-2.347-2.387-3.597-5.94-3.597-10.296
		c0-69.146,55.613-195.618,56.168-196.888c2.427-5.473,2.288-11.743-0.354-17.112c-2.702-5.448-2.854-10.513-0.487-15.931
		c3.45-7.854,10.621-13.126,13.691-14.444c5.33,0.625,19.4,6.324,30.622,12.466c4.336,2.387,9.409,3.066,14.247,1.969
		c0.389-0.094,39.712-8.992,99.306-8.992c35.415,0,70.854,3.096,105.329,9.204c4.533,0.797,9.179,0.029,13.214-2.181
		c11.113-6.093,25.611-11.939,30.553-12.496c3.047,1.275,10.291,6.58,13.756,14.475c2.377,5.418,2.215,10.482-0.487,15.931
		c-2.643,5.364-2.791,11.64-0.354,17.112c0.566,1.274,56.184,127.657,56.184,196.888
		C472.031,293.369,467.11,298.521,458.857,298.521z"/>
</g>
</svg>
